<?xml version="1.0" standalone="no"?>
<!DOCTYPE svg PUBLIC "-//W3C//DTD SVG 20010904//EN"
 "http://www.w3.org/TR/2001/REC-SVG-20010904/DTD/svg10.dtd">
<svg version="1.0" xmlns="http://www.w3.org/2000/svg"
 width="512.000000pt" height="512.000000pt" viewBox="0 0 512.000000 512.000000"
 preserveAspectRatio="xMidYMid meet">

<g transform="translate(0.000000,512.000000) scale(0.100000,-0.100000)"
fill="#ffffff" stroke="none">
<path d="M2250 4994 c-434 -55 -869 -239 -1212 -511 -108 -85 -300 -275 -387
-383 -287 -356 -470 -787 -526 -1240 -19 -158 -19 -428 0 -593 50 -426 213
-832 479 -1187 81 -108 327 -360 431 -442 342 -267 719 -431 1160 -505 157
-26 572 -26 730 0 553 92 1008 326 1385 713 129 133 198 216 287 349 200 298
327 622 390 1000 26 157 26 573 0 730 -74 441 -242 827 -504 1157 -85 108
-275 300 -383 387 -360 290 -794 473 -1248 526 -155 18 -457 18 -602 -1z m550
-314 c490 -59 918 -268 1265 -615 241 -240 412 -513 516 -825 178 -533 140
-1111 -106 -1615 -320 -655 -956 -1104 -1680 -1185 -129 -14 -362 -12 -495 4
-478 60 -903 268 -1245 611 -408 408 -624 926 -625 1500 0 252 30 441 106 675
252 769 933 1332 1744 1445 117 16 406 19 520 5z"/>
<path d="M2464 4040 c-50 -16 -125 -71 -161 -118 -154 -204 -1 -506 257 -506
121 0 242 78 291 186 35 80 34 193 -4 270 -31 62 -84 116 -149 149 -48 25
-180 36 -234 19z"/>
<path d="M2481 2975 c-69 -19 -108 -44 -158 -98 -81 -88 -78 -51 -78 -857 l0
-715 28 -57 c30 -62 83 -115 149 -150 36 -19 58 -23 138 -23 80 0 102 4 138
23 66 35 119 88 149 150 l28 57 0 720 0 720 -24 53 c-62 136 -229 216 -370
177z"/>
</g>
</svg>
