<?xml version="1.0" standalone="no"?>
<!DOCTYPE svg PUBLIC "-//W3C//DTD SVG 20010904//EN"
 "http://www.w3.org/TR/2001/REC-SVG-20010904/DTD/svg10.dtd">
<svg version="1.0" xmlns="http://www.w3.org/2000/svg"
 width="512.000000pt" height="512.000000pt" viewBox="0 0 512.000000 512.000000"
 preserveAspectRatio="xMidYMid meet">

<g transform="translate(0.000000,512.000000) scale(0.100000,-0.100000)"
fill="#363636" stroke="none">
<path d="M2725 4942 c-65 -22 -109 -55 -146 -105 -45 -62 -59 -125 -59 -258
l0 -118 -517 -3 c-502 -3 -519 -4 -564 -24 -66 -31 -114 -78 -146 -142 -26
-52 -28 -68 -31 -194 l-4 -137 -516 -3 -517 -3 -57 -28 c-64 -32 -111 -80
-142 -146 l-21 -46 0 -1675 0 -1675 21 -46 c31 -66 78 -114 142 -146 l57 -28
1075 0 1075 0 57 28 c64 32 111 80 142 146 17 38 21 71 24 183 l4 137 516 3
517 3 57 28 c64 32 111 80 142 146 17 38 21 71 24 183 l4 137 516 3 517 3 57
28 c64 32 111 80 142 146 l21 46 0 1675 0 1675 -21 46 c-31 66 -78 114 -142
146 l-57 28 -1060 2 c-986 2 -1063 1 -1110 -15z m2144 -196 c41 -22 51 -55 51
-176 l0 -110 -1100 0 -1100 0 0 113 c1 120 9 150 51 173 37 21 2058 20 2098 0z
m-1260 -500 c41 -22 51 -55 51 -176 l0 -110 -335 0 c-360 0 -375 -2 -401 -51
-18 -35 -18 -63 0 -98 26 -49 41 -51 401 -51 l335 0 0 -1410 c0 -1071 -3
-1415 -12 -1435 -26 -57 21 -55 -1087 -55 -770 0 -1026 3 -1046 12 -58 26 -55
-56 -55 1478 l0 1410 335 0 c360 0 375 2 401 51 18 35 18 63 0 98 -26 49 -41
51 -401 51 l-335 0 0 113 c1 120 9 150 51 173 37 21 2058 20 2098 0z m1311
-1396 c0 -1534 3 -1452 -55 -1478 -19 -9 -157 -12 -515 -12 l-490 0 0 250 0
250 275 0 c296 0 316 3 341 51 27 52 8 115 -41 137 -18 8 -109 12 -300 12
l-275 0 0 100 0 100 275 0 c296 0 316 3 341 51 27 52 8 115 -41 137 -18 8
-109 12 -300 12 l-275 0 0 100 0 100 275 0 c219 0 282 3 304 14 66 35 66 137
0 172 -22 11 -85 14 -304 14 l-275 0 0 100 0 100 275 0 c300 0 320 3 343 55
23 51 7 107 -39 131 -22 11 -85 14 -304 14 l-275 0 0 100 0 100 275 0 c300 0
320 3 343 55 23 51 7 107 -39 131 -22 11 -85 14 -304 14 l-275 0 0 268 c0 147
-4 282 -9 300 l-10 32 540 0 539 0 0 -1410z m-3660 760 l0 -150 -530 0 -530 0
0 113 c1 120 9 150 51 173 19 11 127 13 517 14 l492 0 0 -150z m0 -650 l0
-300 -275 0 c-296 0 -316 -3 -341 -51 -18 -35 -18 -63 0 -98 25 -48 45 -51
341 -51 l275 0 0 -100 0 -100 -275 0 c-300 0 -320 -3 -343 -55 -15 -33 -15
-57 0 -90 23 -52 43 -55 343 -55 l275 0 0 -100 0 -100 -275 0 c-300 0 -320 -3
-343 -55 -15 -33 -15 -57 0 -90 23 -52 43 -55 343 -55 l275 0 0 -100 0 -100
-275 0 c-296 0 -316 -3 -341 -51 -18 -35 -18 -63 0 -98 25 -48 45 -51 341 -51
l275 0 0 -100 0 -100 -275 0 c-296 0 -316 -3 -341 -51 -27 -52 -8 -115 41
-137 18 -8 111 -12 308 -12 l282 -1 30 -51 c17 -29 49 -67 73 -85 81 -61 99
-63 584 -63 l438 0 0 -110 c0 -63 -5 -120 -12 -135 -26 -57 21 -55 -1087 -55
-770 0 -1026 3 -1046 12 -58 26 -55 -56 -55 1478 l0 1410 530 0 530 0 0 -300z"/>
<path d="M2511 3946 c-87 -48 -50 -186 49 -186 51 0 100 49 100 99 0 75 -83
124 -149 87z"/>
<path d="M1861 2836 c-29 -16 -50 -52 -51 -86 0 -29 18 -59 69 -113 l35 -37
-41 -43 c-75 -78 -82 -120 -29 -173 54 -54 93 -46 179 35 l37 35 38 -35 c85
-81 124 -89 178 -35 53 53 46 95 -29 173 l-40 42 47 52 c65 72 72 123 26 169
-47 47 -102 38 -171 -27 l-50 -46 -42 40 c-67 65 -106 77 -156 49z"/>
<path d="M2861 2836 c-29 -16 -50 -52 -51 -86 0 -29 18 -59 69 -113 l35 -37
-41 -43 c-75 -78 -82 -120 -29 -173 54 -54 93 -46 179 35 l37 35 38 -35 c85
-81 124 -89 178 -35 53 53 46 95 -29 173 l-40 42 47 52 c65 72 72 123 26 169
-47 47 -102 38 -171 -27 l-50 -46 -42 40 c-67 65 -106 77 -156 49z"/>
<path d="M2440 2094 c-88 -19 -199 -75 -262 -133 -48 -44 -53 -52 -53 -91 0
-35 6 -47 33 -71 47 -42 87 -39 148 11 158 131 350 131 508 0 61 -50 101 -53
148 -11 27 24 33 36 33 71 0 39 -5 47 -53 91 -94 87 -259 150 -387 148 -27 0
-79 -7 -115 -15z"/>
</g>
</svg>
