<?xml version="1.0" standalone="no"?>
<!DOCTYPE svg PUBLIC "-//W3C//DTD SVG 20010904//EN"
 "http://www.w3.org/TR/2001/REC-SVG-20010904/DTD/svg10.dtd">
<svg version="1.0" xmlns="http://www.w3.org/2000/svg"
 width="182.000000pt" height="184.000000pt" viewBox="0 0 182.000000 184.000000"
 preserveAspectRatio="xMidYMid meet">

<g transform="translate(0.000000,184.000000) scale(0.100000,-0.100000)"
fill="#ffbf00" stroke="none">
<path d="M1128 1696 c-46 -162 -85 -243 -155 -317 -82 -87 -185 -136 -391
-189 -49 -13 -48 -25 5 -35 21 -4 74 -18 118 -32 186 -59 281 -133 350 -277
24 -50 57 -138 74 -196 16 -58 31 -98 34 -90 3 8 17 58 32 110 49 180 120 299
218 363 65 43 129 70 261 108 54 16 100 30 102 32 2 2 -47 18 -109 36 -269 78
-368 164 -446 386 -16 44 -34 106 -41 138 -7 31 -16 57 -20 57 -3 0 -18 -42
-32 -94z"/>
<path d="M1514 1623 c-13 -25 -32 -44 -59 -57 l-39 -20 29 -9 c41 -13 56 -27
73 -67 l15 -35 13 31 c16 38 58 74 88 74 15 1 8 7 -23 22 -32 16 -48 32 -61
61 l-18 39 -18 -39z"/>
<path d="M250 1491 c-71 -15 -137 -67 -176 -141 -18 -33 -19 -70 -22 -548 -2
-353 1 -531 8 -568 15 -71 61 -131 129 -166 l53 -28 538 0 538 0 53 28 c66 34
114 94 128 162 7 31 11 173 11 355 l0 305 -50 0 -50 0 0 -326 c0 -314 -1 -328
-21 -361 -44 -70 -24 -68 -609 -68 -585 0 -565 -2 -609 68 -21 34 -21 44 -21
563 0 510 1 530 20 562 11 18 34 41 52 52 31 19 51 20 336 20 l303 0 -3 48 -3
47 -285 1 c-157 1 -301 -1 -320 -5z"/>
<path d="M627 902 c-13 -63 -52 -147 -86 -185 -31 -35 -140 -97 -170 -97 -5 0
-22 -5 -38 -11 -28 -11 -27 -11 27 -25 94 -24 158 -62 195 -113 31 -43 75
-152 75 -187 0 -29 17 -4 24 33 8 54 58 153 92 185 34 32 123 74 177 83 20 4
37 10 37 14 0 3 -33 16 -73 29 -39 13 -90 35 -112 50 -49 34 -100 117 -116
189 -14 63 -24 74 -32 35z"/>
</g>
</svg>
